<svg width="491.70000000000005" height="266.20000000000005" xmlns="http://www.w3.org/2000/svg" xmlns:xlink="http://www.w3.org/1999/xlink"><line x1="161.75" y1="7.5" x2="73.0" y2="32.0" style="stroke:black; stroke-width:1px;" />
<line x1="73.0" y1="39.5" x2="30.5" y2="64.0" style="stroke:black; stroke-width:1px;" />
<line x1="30.5" y1="71.5" x2="30.5" y2="96.0" style="stroke:black; stroke-width:1px;" />
<line x1="73.0" y1="39.5" x2="73.0" y2="64.0" style="stroke:black; stroke-width:1px;" />
<line x1="73.0" y1="39.5" x2="115.5" y2="64.0" style="stroke:black; stroke-width:1px;" />
<line x1="115.5" y1="71.5" x2="115.5" y2="96.0" style="stroke:black; stroke-width:1px;" />
<line x1="161.75" y1="7.5" x2="161.75" y2="32.0" style="stroke:black; stroke-width:1px;" />
<line x1="161.75" y1="7.5" x2="250.5" y2="32.0" style="stroke:black; stroke-width:1px;" />
<line x1="250.5" y1="39.5" x2="205.5" y2="64.0" style="stroke:black; stroke-width:1px;" />
<line x1="205.5" y1="71.5" x2="164.0" y2="96.0" style="stroke:black; stroke-width:1px;" />
<line x1="164.0" y1="103.5" x2="164.0" y2="128.0" style="stroke:black; stroke-width:1px;" />
<line x1="205.5" y1="71.5" x2="205.5" y2="96.0" style="stroke:black; stroke-width:1px;" />
<line x1="205.5" y1="71.5" x2="247.0" y2="96.0" style="stroke:black; stroke-width:1px;" />
<line x1="247.0" y1="103.5" x2="247.0" y2="128.0" style="stroke:black; stroke-width:1px;" />
<line x1="250.5" y1="39.5" x2="250.5" y2="64.0" style="stroke:black; stroke-width:1px;" />
<line x1="250.5" y1="39.5" x2="295.5" y2="64.0" style="stroke:black; stroke-width:1px;" />
<line x1="295.5" y1="71.5" x2="295.5" y2="96.0" style="stroke:black; stroke-width:1px;" />
<rect x="220.0" y="32.0" width="61.0" height="15.0" style="fill:orange; stroke:rgb(0,0,0);" rx="1"/>
<text x="222" y="41" style="font-family:sans-serif;font-size:10px;">
infix_expr:3
</text>
<rect x="175.0" y="64.0" width="61.0" height="15.0" style="fill:orange; stroke:rgb(0,0,0);" rx="1"/>
<text x="177" y="73" style="font-family:sans-serif;font-size:10px;">
infix_expr:3
</text>
<rect x="247.0" y="64.0" width="7.0" height="15.0" style="fill:orange; stroke:rgb(0,0,0);" rx="1"/>
<text x="249" y="73" style="font-family:sans-serif;font-size:10px;">
/
</text>
<rect x="284.5" y="96.0" width="22.0" height="15.0" style="fill:orange; stroke:rgb(0,0,0);" rx="1"/>
<text x="286" y="105" style="font-family:sans-serif;font-size:10px;">
001
</text>
<rect x="42.5" y="32.0" width="61.0" height="15.0" style="fill:orange; stroke:rgb(0,0,0);" rx="1"/>
<text x="44" y="41" style="font-family:sans-serif;font-size:10px;">
infix_expr:4
</text>
<rect x="0.0" y="64.0" width="61.0" height="15.0" style="fill:orange; stroke:rgb(0,0,0);" rx="1"/>
<text x="2" y="73" style="font-family:sans-serif;font-size:10px;">
infix_expr:9
</text>
<rect x="153.0" y="128.0" width="22.0" height="15.0" style="fill:orange; stroke:rgb(0,0,0);" rx="1"/>
<text x="155" y="137" style="font-family:sans-serif;font-size:10px;">
011
</text>
<rect x="265.0" y="64.0" width="61.0" height="15.0" style="fill:orange; stroke:rgb(0,0,0);" rx="1"/>
<text x="267" y="73" style="font-family:sans-serif;font-size:10px;">
infix_expr:9
</text>
<rect x="157.75" y="32.0" width="8.0" height="15.0" style="fill:orange; stroke:rgb(0,0,0);" rx="1"/>
<text x="159" y="41" style="font-family:sans-serif;font-size:10px;">
-
</text>
<rect x="216.5" y="96.0" width="61.0" height="15.0" style="fill:orange; stroke:rgb(0,0,0);" rx="1"/>
<text x="218" y="105" style="font-family:sans-serif;font-size:10px;">
infix_expr:9
</text>
<rect x="68.0" y="64.0" width="10.0" height="15.0" style="fill:orange; stroke:rgb(0,0,0);" rx="1"/>
<text x="70" y="73" style="font-family:sans-serif;font-size:10px;">
+
</text>
<rect x="131.25" y="0.0" width="61.0" height="15.0" style="fill:orange; stroke:rgb(0,0,0);" rx="1"/>
<text x="133" y="9" style="font-family:sans-serif;font-size:10px;">
infix_expr:4
</text>
<rect x="133.5" y="96.0" width="61.0" height="15.0" style="fill:orange; stroke:rgb(0,0,0);" rx="1"/>
<text x="135" y="105" style="font-family:sans-serif;font-size:10px;">
infix_expr:9
</text>
<rect x="104.5" y="96.0" width="22.0" height="15.0" style="fill:orange; stroke:rgb(0,0,0);" rx="1"/>
<text x="106" y="105" style="font-family:sans-serif;font-size:10px;">
100
</text>
<rect x="201.5" y="96.0" width="8.0" height="15.0" style="fill:orange; stroke:rgb(0,0,0);" rx="1"/>
<text x="203" y="105" style="font-family:sans-serif;font-size:10px;">
*
</text>
<rect x="236.0" y="128.0" width="22.0" height="15.0" style="fill:orange; stroke:rgb(0,0,0);" rx="1"/>
<text x="238" y="137" style="font-family:sans-serif;font-size:10px;">
010
</text>
<rect x="85.0" y="64.0" width="61.0" height="15.0" style="fill:orange; stroke:rgb(0,0,0);" rx="1"/>
<text x="87" y="73" style="font-family:sans-serif;font-size:10px;">
infix_expr:9
</text>
<rect x="19.5" y="96.0" width="22.0" height="15.0" style="fill:orange; stroke:rgb(0,0,0);" rx="1"/>
<text x="21" y="105" style="font-family:sans-serif;font-size:10px;">
101
</text>
</svg>