<svg width="749.1" height="303.6" xmlns="http://www.w3.org/2000/svg" xmlns:xlink="http://www.w3.org/1999/xlink"><line x1="180.75" y1="7.5" x2="95.0" y2="32.0" style="stroke:black; stroke-width:1px;" />
<line x1="95.0" y1="39.5" x2="30.5" y2="64.0" style="stroke:black; stroke-width:1px;" />
<line x1="30.5" y1="71.5" x2="30.5" y2="96.0" style="stroke:black; stroke-width:1px;" />
<line x1="30.5" y1="103.5" x2="5.0" y2="128.0" style="stroke:black; stroke-width:1px;" />
<line x1="30.5" y1="103.5" x2="22.0" y2="128.0" style="stroke:black; stroke-width:1px;" />
<line x1="30.5" y1="103.5" x2="39.0" y2="128.0" style="stroke:black; stroke-width:1px;" />
<line x1="30.5" y1="103.5" x2="56.0" y2="128.0" style="stroke:black; stroke-width:1px;" />
<line x1="95.0" y1="39.5" x2="95.0" y2="64.0" style="stroke:black; stroke-width:1px;" />
<line x1="95.0" y1="71.5" x2="95.0" y2="96.0" style="stroke:black; stroke-width:1px;" />
<line x1="95.0" y1="39.5" x2="159.5" y2="64.0" style="stroke:black; stroke-width:1px;" />
<line x1="159.5" y1="71.5" x2="159.5" y2="96.0" style="stroke:black; stroke-width:1px;" />
<line x1="159.5" y1="103.5" x2="134.0" y2="128.0" style="stroke:black; stroke-width:1px;" />
<line x1="159.5" y1="103.5" x2="151.0" y2="128.0" style="stroke:black; stroke-width:1px;" />
<line x1="159.5" y1="103.5" x2="168.0" y2="128.0" style="stroke:black; stroke-width:1px;" />
<line x1="159.5" y1="103.5" x2="185.0" y2="128.0" style="stroke:black; stroke-width:1px;" />
<line x1="180.75" y1="7.5" x2="202.0" y2="32.0" style="stroke:black; stroke-width:1px;" />
<line x1="202.0" y1="39.5" x2="202.0" y2="64.0" style="stroke:black; stroke-width:1px;" />
<line x1="180.75" y1="7.5" x2="266.5" y2="32.0" style="stroke:black; stroke-width:1px;" />
<line x1="266.5" y1="39.5" x2="225.0" y2="64.0" style="stroke:black; stroke-width:1px;" />
<line x1="266.5" y1="39.5" x2="266.5" y2="64.0" style="stroke:black; stroke-width:1px;" />
<line x1="266.5" y1="71.5" x2="266.5" y2="96.0" style="stroke:black; stroke-width:1px;" />
<line x1="266.5" y1="103.5" x2="241.0" y2="128.0" style="stroke:black; stroke-width:1px;" />
<line x1="266.5" y1="103.5" x2="258.0" y2="128.0" style="stroke:black; stroke-width:1px;" />
<line x1="266.5" y1="103.5" x2="275.0" y2="128.0" style="stroke:black; stroke-width:1px;" />
<line x1="266.5" y1="103.5" x2="292.0" y2="128.0" style="stroke:black; stroke-width:1px;" />
<line x1="266.5" y1="39.5" x2="308.0" y2="64.0" style="stroke:black; stroke-width:1px;" />
<rect x="34.0" y="128.0" width="10.0" height="15.0" style="fill:orange; stroke:rgb(0,0,0);" rx="1"/>
<text x="36" y="137" style="font-family:sans-serif;font-size:10px;">
1
</text>
<rect x="287.0" y="128.0" width="10.0" height="15.0" style="fill:orange; stroke:rgb(0,0,0);" rx="1"/>
<text x="289" y="137" style="font-family:sans-serif;font-size:10px;">
1
</text>
<rect x="236.0" y="32.0" width="61.0" height="15.0" style="fill:orange; stroke:rgb(0,0,0);" rx="1"/>
<text x="238" y="41" style="font-family:sans-serif;font-size:10px;">
infix_expr:1
</text>
<rect x="175.0" y="32.0" width="54.0" height="15.0" style="fill:orange; stroke:rgb(0,0,0);" rx="1"/>
<text x="177" y="41" style="font-family:sans-serif;font-size:10px;">
operator:2
</text>
<rect x="240.0" y="96.0" width="53.0" height="15.0" style="fill:orange; stroke:rgb(0,0,0);" rx="1"/>
<text x="242" y="105" style="font-family:sans-serif;font-size:10px;">
operand:1
</text>
<rect x="0.0" y="128.0" width="10.0" height="15.0" style="fill:orange; stroke:rgb(0,0,0);" rx="1"/>
<text x="2" y="137" style="font-family:sans-serif;font-size:10px;">
1
</text>
<rect x="236.0" y="64.0" width="61.0" height="15.0" style="fill:orange; stroke:rgb(0,0,0);" rx="1"/>
<text x="238" y="73" style="font-family:sans-serif;font-size:10px;">
infix_expr:4
</text>
<rect x="90.0" y="96.0" width="10.0" height="15.0" style="fill:orange; stroke:rgb(0,0,0);" rx="1"/>
<text x="92" y="105" style="font-family:sans-serif;font-size:10px;">
+
</text>
<rect x="51.0" y="128.0" width="10.0" height="15.0" style="fill:orange; stroke:rgb(0,0,0);" rx="1"/>
<text x="53" y="137" style="font-family:sans-serif;font-size:10px;">
0
</text>
<rect x="304.0" y="64.0" width="8.0" height="15.0" style="fill:orange; stroke:rgb(0,0,0);" rx="1"/>
<text x="306" y="73" style="font-family:sans-serif;font-size:10px;">
)
</text>
<rect x="68.0" y="64.0" width="54.0" height="15.0" style="fill:orange; stroke:rgb(0,0,0);" rx="1"/>
<text x="70" y="73" style="font-family:sans-serif;font-size:10px;">
operator:2
</text>
<rect x="150.25" y="0.0" width="61.0" height="15.0" style="fill:orange; stroke:rgb(0,0,0);" rx="1"/>
<text x="152" y="9" style="font-family:sans-serif;font-size:10px;">
infix_expr:3
</text>
<rect x="270.0" y="128.0" width="10.0" height="15.0" style="fill:orange; stroke:rgb(0,0,0);" rx="1"/>
<text x="272" y="137" style="font-family:sans-serif;font-size:10px;">
0
</text>
<rect x="197.0" y="64.0" width="10.0" height="15.0" style="fill:orange; stroke:rgb(0,0,0);" rx="1"/>
<text x="199" y="73" style="font-family:sans-serif;font-size:10px;">
+
</text>
<rect x="4.0" y="96.0" width="53.0" height="15.0" style="fill:orange; stroke:rgb(0,0,0);" rx="1"/>
<text x="6" y="105" style="font-family:sans-serif;font-size:10px;">
operand:1
</text>
<rect x="146.0" y="128.0" width="10.0" height="15.0" style="fill:orange; stroke:rgb(0,0,0);" rx="1"/>
<text x="148" y="137" style="font-family:sans-serif;font-size:10px;">
0
</text>
<rect x="129.0" y="64.0" width="61.0" height="15.0" style="fill:orange; stroke:rgb(0,0,0);" rx="1"/>
<text x="131" y="73" style="font-family:sans-serif;font-size:10px;">
infix_expr:4
</text>
<rect x="180.0" y="128.0" width="10.0" height="15.0" style="fill:orange; stroke:rgb(0,0,0);" rx="1"/>
<text x="182" y="137" style="font-family:sans-serif;font-size:10px;">
0
</text>
<rect x="221.0" y="64.0" width="8.0" height="15.0" style="fill:orange; stroke:rgb(0,0,0);" rx="1"/>
<text x="223" y="73" style="font-family:sans-serif;font-size:10px;">
(
</text>
<rect x="133.0" y="96.0" width="53.0" height="15.0" style="fill:orange; stroke:rgb(0,0,0);" rx="1"/>
<text x="135" y="105" style="font-family:sans-serif;font-size:10px;">
operand:1
</text>
<rect x="17.0" y="128.0" width="10.0" height="15.0" style="fill:orange; stroke:rgb(0,0,0);" rx="1"/>
<text x="19" y="137" style="font-family:sans-serif;font-size:10px;">
0
</text>
<rect x="64.5" y="32.0" width="61.0" height="15.0" style="fill:orange; stroke:rgb(0,0,0);" rx="1"/>
<text x="66" y="41" style="font-family:sans-serif;font-size:10px;">
infix_expr:3
</text>
<rect x="163.0" y="128.0" width="10.0" height="15.0" style="fill:orange; stroke:rgb(0,0,0);" rx="1"/>
<text x="165" y="137" style="font-family:sans-serif;font-size:10px;">
1
</text>
<rect x="129.0" y="128.0" width="10.0" height="15.0" style="fill:orange; stroke:rgb(0,0,0);" rx="1"/>
<text x="131" y="137" style="font-family:sans-serif;font-size:10px;">
1
</text>
<rect x="236.0" y="128.0" width="10.0" height="15.0" style="fill:orange; stroke:rgb(0,0,0);" rx="1"/>
<text x="238" y="137" style="font-family:sans-serif;font-size:10px;">
0
</text>
<rect x="0.0" y="64.0" width="61.0" height="15.0" style="fill:orange; stroke:rgb(0,0,0);" rx="1"/>
<text x="2" y="73" style="font-family:sans-serif;font-size:10px;">
infix_expr:4
</text>
<rect x="253.0" y="128.0" width="10.0" height="15.0" style="fill:orange; stroke:rgb(0,0,0);" rx="1"/>
<text x="255" y="137" style="font-family:sans-serif;font-size:10px;">
1
</text>
</svg>