<svg width="795.3000000000001" height="361.90000000000003" xmlns="http://www.w3.org/2000/svg" xmlns:xlink="http://www.w3.org/1999/xlink"><line x1="271.0" y1="7.5" x2="155.5" y2="32.0" style="stroke:black; stroke-width:1px;" />
<line x1="155.5" y1="39.5" x2="76.0" y2="64.0" style="stroke:black; stroke-width:1px;" />
<line x1="76.0" y1="71.5" x2="34.5" y2="96.0" style="stroke:black; stroke-width:1px;" />
<line x1="76.0" y1="71.5" x2="76.0" y2="96.0" style="stroke:black; stroke-width:1px;" />
<line x1="76.0" y1="103.5" x2="30.5" y2="128.0" style="stroke:black; stroke-width:1px;" />
<line x1="30.5" y1="135.5" x2="30.5" y2="160.0" style="stroke:black; stroke-width:1px;" />
<line x1="30.5" y1="167.5" x2="5.0" y2="192.0" style="stroke:black; stroke-width:1px;" />
<line x1="30.5" y1="167.5" x2="22.0" y2="192.0" style="stroke:black; stroke-width:1px;" />
<line x1="30.5" y1="167.5" x2="39.0" y2="192.0" style="stroke:black; stroke-width:1px;" />
<line x1="30.5" y1="167.5" x2="56.0" y2="192.0" style="stroke:black; stroke-width:1px;" />
<line x1="76.0" y1="103.5" x2="76.0" y2="128.0" style="stroke:black; stroke-width:1px;" />
<line x1="76.0" y1="103.5" x2="121.5" y2="128.0" style="stroke:black; stroke-width:1px;" />
<line x1="121.5" y1="135.5" x2="121.5" y2="160.0" style="stroke:black; stroke-width:1px;" />
<line x1="121.5" y1="167.5" x2="96.0" y2="192.0" style="stroke:black; stroke-width:1px;" />
<line x1="121.5" y1="167.5" x2="113.0" y2="192.0" style="stroke:black; stroke-width:1px;" />
<line x1="121.5" y1="167.5" x2="130.0" y2="192.0" style="stroke:black; stroke-width:1px;" />
<line x1="121.5" y1="167.5" x2="147.0" y2="192.0" style="stroke:black; stroke-width:1px;" />
<line x1="76.0" y1="71.5" x2="117.5" y2="96.0" style="stroke:black; stroke-width:1px;" />
<line x1="155.5" y1="39.5" x2="155.5" y2="64.0" style="stroke:black; stroke-width:1px;" />
<line x1="155.5" y1="39.5" x2="235.0" y2="64.0" style="stroke:black; stroke-width:1px;" />
<line x1="235.0" y1="71.5" x2="193.5" y2="96.0" style="stroke:black; stroke-width:1px;" />
<line x1="235.0" y1="71.5" x2="235.0" y2="96.0" style="stroke:black; stroke-width:1px;" />
<line x1="235.0" y1="103.5" x2="189.5" y2="128.0" style="stroke:black; stroke-width:1px;" />
<line x1="189.5" y1="135.5" x2="189.5" y2="160.0" style="stroke:black; stroke-width:1px;" />
<line x1="189.5" y1="167.5" x2="164.0" y2="192.0" style="stroke:black; stroke-width:1px;" />
<line x1="189.5" y1="167.5" x2="181.0" y2="192.0" style="stroke:black; stroke-width:1px;" />
<line x1="189.5" y1="167.5" x2="198.0" y2="192.0" style="stroke:black; stroke-width:1px;" />
<line x1="189.5" y1="167.5" x2="215.0" y2="192.0" style="stroke:black; stroke-width:1px;" />
<line x1="235.0" y1="103.5" x2="235.0" y2="128.0" style="stroke:black; stroke-width:1px;" />
<line x1="235.0" y1="103.5" x2="280.5" y2="128.0" style="stroke:black; stroke-width:1px;" />
<line x1="280.5" y1="135.5" x2="280.5" y2="160.0" style="stroke:black; stroke-width:1px;" />
<line x1="280.5" y1="167.5" x2="255.0" y2="192.0" style="stroke:black; stroke-width:1px;" />
<line x1="280.5" y1="167.5" x2="272.0" y2="192.0" style="stroke:black; stroke-width:1px;" />
<line x1="280.5" y1="167.5" x2="289.0" y2="192.0" style="stroke:black; stroke-width:1px;" />
<line x1="280.5" y1="167.5" x2="306.0" y2="192.0" style="stroke:black; stroke-width:1px;" />
<line x1="235.0" y1="71.5" x2="276.5" y2="96.0" style="stroke:black; stroke-width:1px;" />
<line x1="271.0" y1="7.5" x2="271.0" y2="32.0" style="stroke:black; stroke-width:1px;" />
<line x1="271.0" y1="7.5" x2="386.5" y2="32.0" style="stroke:black; stroke-width:1px;" />
<line x1="386.5" y1="39.5" x2="345.0" y2="64.0" style="stroke:black; stroke-width:1px;" />
<line x1="386.5" y1="39.5" x2="386.5" y2="64.0" style="stroke:black; stroke-width:1px;" />
<line x1="386.5" y1="71.5" x2="344.5" y2="96.0" style="stroke:black; stroke-width:1px;" />
<line x1="344.5" y1="103.5" x2="344.5" y2="128.0" style="stroke:black; stroke-width:1px;" />
<line x1="344.5" y1="135.5" x2="319.0" y2="160.0" style="stroke:black; stroke-width:1px;" />
<line x1="344.5" y1="135.5" x2="336.0" y2="160.0" style="stroke:black; stroke-width:1px;" />
<line x1="344.5" y1="135.5" x2="353.0" y2="160.0" style="stroke:black; stroke-width:1px;" />
<line x1="344.5" y1="135.5" x2="370.0" y2="160.0" style="stroke:black; stroke-width:1px;" />
<line x1="386.5" y1="71.5" x2="386.5" y2="96.0" style="stroke:black; stroke-width:1px;" />
<line x1="386.5" y1="71.5" x2="428.5" y2="96.0" style="stroke:black; stroke-width:1px;" />
<line x1="428.5" y1="103.5" x2="428.5" y2="128.0" style="stroke:black; stroke-width:1px;" />
<line x1="428.5" y1="135.5" x2="403.0" y2="160.0" style="stroke:black; stroke-width:1px;" />
<line x1="428.5" y1="135.5" x2="420.0" y2="160.0" style="stroke:black; stroke-width:1px;" />
<line x1="428.5" y1="135.5" x2="437.0" y2="160.0" style="stroke:black; stroke-width:1px;" />
<line x1="428.5" y1="135.5" x2="454.0" y2="160.0" style="stroke:black; stroke-width:1px;" />
<line x1="386.5" y1="39.5" x2="428.0" y2="64.0" style="stroke:black; stroke-width:1px;" />
<rect x="356.0" y="32.0" width="61.0" height="15.0" style="fill:orange; stroke:rgb(0,0,0);" rx="1"/>
<text x="358" y="41" style="font-family:sans-serif;font-size:10px;">
infix_expr:1
</text>
<rect x="402.0" y="128.0" width="53.0" height="15.0" style="fill:orange; stroke:rgb(0,0,0);" rx="1"/>
<text x="404" y="137" style="font-family:sans-serif;font-size:10px;">
operand:1
</text>
<rect x="176.0" y="192.0" width="10.0" height="15.0" style="fill:orange; stroke:rgb(0,0,0);" rx="1"/>
<text x="178" y="201" style="font-family:sans-serif;font-size:10px;">
1
</text>
<rect x="193.0" y="192.0" width="10.0" height="15.0" style="fill:orange; stroke:rgb(0,0,0);" rx="1"/>
<text x="195" y="201" style="font-family:sans-serif;font-size:10px;">
1
</text>
<rect x="424.0" y="64.0" width="8.0" height="15.0" style="fill:orange; stroke:rgb(0,0,0);" rx="1"/>
<text x="426" y="73" style="font-family:sans-serif;font-size:10px;">
)
</text>
<rect x="284.0" y="192.0" width="10.0" height="15.0" style="fill:orange; stroke:rgb(0,0,0);" rx="1"/>
<text x="286" y="201" style="font-family:sans-serif;font-size:10px;">
0
</text>
<rect x="382.0" y="96.0" width="9.0" height="15.0" style="fill:orange; stroke:rgb(0,0,0);" rx="1"/>
<text x="384" y="105" style="font-family:sans-serif;font-size:10px;">
^
</text>
<rect x="4.0" y="160.0" width="53.0" height="15.0" style="fill:orange; stroke:rgb(0,0,0);" rx="1"/>
<text x="6" y="169" style="font-family:sans-serif;font-size:10px;">
operand:1
</text>
<rect x="159.0" y="192.0" width="10.0" height="15.0" style="fill:orange; stroke:rgb(0,0,0);" rx="1"/>
<text x="161" y="201" style="font-family:sans-serif;font-size:10px;">
1
</text>
<rect x="318.0" y="128.0" width="53.0" height="15.0" style="fill:orange; stroke:rgb(0,0,0);" rx="1"/>
<text x="320" y="137" style="font-family:sans-serif;font-size:10px;">
operand:1
</text>
<rect x="449.0" y="160.0" width="10.0" height="15.0" style="fill:orange; stroke:rgb(0,0,0);" rx="1"/>
<text x="451" y="169" style="font-family:sans-serif;font-size:10px;">
0
</text>
<rect x="125.0" y="192.0" width="10.0" height="15.0" style="fill:orange; stroke:rgb(0,0,0);" rx="1"/>
<text x="127" y="201" style="font-family:sans-serif;font-size:10px;">
1
</text>
<rect x="301.0" y="192.0" width="10.0" height="15.0" style="fill:orange; stroke:rgb(0,0,0);" rx="1"/>
<text x="303" y="201" style="font-family:sans-serif;font-size:10px;">
1
</text>
<rect x="68.0" y="128.0" width="16.0" height="15.0" style="fill:orange; stroke:rgb(0,0,0);" rx="1"/>
<text x="70" y="137" style="font-family:sans-serif;font-size:10px;">
&lt;&lt;
</text>
<rect x="91.0" y="192.0" width="10.0" height="15.0" style="fill:orange; stroke:rgb(0,0,0);" rx="1"/>
<text x="93" y="201" style="font-family:sans-serif;font-size:10px;">
0
</text>
<rect x="45.5" y="96.0" width="61.0" height="15.0" style="fill:orange; stroke:rgb(0,0,0);" rx="1"/>
<text x="47" y="105" style="font-family:sans-serif;font-size:10px;">
infix_expr:5
</text>
<rect x="314.0" y="96.0" width="61.0" height="15.0" style="fill:orange; stroke:rgb(0,0,0);" rx="1"/>
<text x="316" y="105" style="font-family:sans-serif;font-size:10px;">
infix_expr:9
</text>
<rect x="51.0" y="192.0" width="10.0" height="15.0" style="fill:orange; stroke:rgb(0,0,0);" rx="1"/>
<text x="53" y="201" style="font-family:sans-serif;font-size:10px;">
1
</text>
<rect x="227.0" y="128.0" width="16.0" height="15.0" style="fill:orange; stroke:rgb(0,0,0);" rx="1"/>
<text x="229" y="137" style="font-family:sans-serif;font-size:10px;">
&gt;&gt;
</text>
<rect x="398.0" y="96.0" width="61.0" height="15.0" style="fill:orange; stroke:rgb(0,0,0);" rx="1"/>
<text x="400" y="105" style="font-family:sans-serif;font-size:10px;">
infix_expr:9
</text>
<rect x="91.0" y="128.0" width="61.0" height="15.0" style="fill:orange; stroke:rgb(0,0,0);" rx="1"/>
<text x="93" y="137" style="font-family:sans-serif;font-size:10px;">
infix_expr:9
</text>
<rect x="17.0" y="192.0" width="10.0" height="15.0" style="fill:orange; stroke:rgb(0,0,0);" rx="1"/>
<text x="19" y="201" style="font-family:sans-serif;font-size:10px;">
0
</text>
<rect x="240.5" y="0.0" width="61.0" height="15.0" style="fill:orange; stroke:rgb(0,0,0);" rx="1"/>
<text x="242" y="9" style="font-family:sans-serif;font-size:10px;">
infix_expr:8
</text>
<rect x="272.5" y="96.0" width="8.0" height="15.0" style="fill:orange; stroke:rgb(0,0,0);" rx="1"/>
<text x="274" y="105" style="font-family:sans-serif;font-size:10px;">
)
</text>
<rect x="0.0" y="128.0" width="61.0" height="15.0" style="fill:orange; stroke:rgb(0,0,0);" rx="1"/>
<text x="2" y="137" style="font-family:sans-serif;font-size:10px;">
infix_expr:9
</text>
<rect x="159.0" y="128.0" width="61.0" height="15.0" style="fill:orange; stroke:rgb(0,0,0);" rx="1"/>
<text x="161" y="137" style="font-family:sans-serif;font-size:10px;">
infix_expr:9
</text>
<rect x="432.0" y="160.0" width="10.0" height="15.0" style="fill:orange; stroke:rgb(0,0,0);" rx="1"/>
<text x="434" y="169" style="font-family:sans-serif;font-size:10px;">
0
</text>
<rect x="398.0" y="160.0" width="10.0" height="15.0" style="fill:orange; stroke:rgb(0,0,0);" rx="1"/>
<text x="400" y="169" style="font-family:sans-serif;font-size:10px;">
1
</text>
<rect x="113.5" y="96.0" width="8.0" height="15.0" style="fill:orange; stroke:rgb(0,0,0);" rx="1"/>
<text x="115" y="105" style="font-family:sans-serif;font-size:10px;">
)
</text>
<rect x="267.0" y="192.0" width="10.0" height="15.0" style="fill:orange; stroke:rgb(0,0,0);" rx="1"/>
<text x="269" y="201" style="font-family:sans-serif;font-size:10px;">
0
</text>
<rect x="356.0" y="64.0" width="61.0" height="15.0" style="fill:orange; stroke:rgb(0,0,0);" rx="1"/>
<text x="358" y="73" style="font-family:sans-serif;font-size:10px;">
infix_expr:7
</text>
<rect x="150.0" y="64.0" width="11.0" height="15.0" style="fill:orange; stroke:rgb(0,0,0);" rx="1"/>
<text x="152" y="73" style="font-family:sans-serif;font-size:10px;">
&
</text>
<rect x="348.0" y="160.0" width="10.0" height="15.0" style="fill:orange; stroke:rgb(0,0,0);" rx="1"/>
<text x="350" y="169" style="font-family:sans-serif;font-size:10px;">
0
</text>
<rect x="45.5" y="64.0" width="61.0" height="15.0" style="fill:orange; stroke:rgb(0,0,0);" rx="1"/>
<text x="47" y="73" style="font-family:sans-serif;font-size:10px;">
infix_expr:1
</text>
<rect x="30.5" y="96.0" width="8.0" height="15.0" style="fill:orange; stroke:rgb(0,0,0);" rx="1"/>
<text x="32" y="105" style="font-family:sans-serif;font-size:10px;">
(
</text>
<rect x="125.0" y="32.0" width="61.0" height="15.0" style="fill:orange; stroke:rgb(0,0,0);" rx="1"/>
<text x="127" y="41" style="font-family:sans-serif;font-size:10px;">
infix_expr:6
</text>
<rect x="250.0" y="192.0" width="10.0" height="15.0" style="fill:orange; stroke:rgb(0,0,0);" rx="1"/>
<text x="252" y="201" style="font-family:sans-serif;font-size:10px;">
0
</text>
<rect x="210.0" y="192.0" width="10.0" height="15.0" style="fill:orange; stroke:rgb(0,0,0);" rx="1"/>
<text x="212" y="201" style="font-family:sans-serif;font-size:10px;">
0
</text>
<rect x="415.0" y="160.0" width="10.0" height="15.0" style="fill:orange; stroke:rgb(0,0,0);" rx="1"/>
<text x="417" y="169" style="font-family:sans-serif;font-size:10px;">
1
</text>
<rect x="204.5" y="96.0" width="61.0" height="15.0" style="fill:orange; stroke:rgb(0,0,0);" rx="1"/>
<text x="206" y="105" style="font-family:sans-serif;font-size:10px;">
infix_expr:5
</text>
<rect x="108.0" y="192.0" width="10.0" height="15.0" style="fill:orange; stroke:rgb(0,0,0);" rx="1"/>
<text x="110" y="201" style="font-family:sans-serif;font-size:10px;">
0
</text>
<rect x="142.0" y="192.0" width="10.0" height="15.0" style="fill:orange; stroke:rgb(0,0,0);" rx="1"/>
<text x="144" y="201" style="font-family:sans-serif;font-size:10px;">
1
</text>
<rect x="95.0" y="160.0" width="53.0" height="15.0" style="fill:orange; stroke:rgb(0,0,0);" rx="1"/>
<text x="97" y="169" style="font-family:sans-serif;font-size:10px;">
operand:1
</text>
<rect x="0.0" y="192.0" width="10.0" height="15.0" style="fill:orange; stroke:rgb(0,0,0);" rx="1"/>
<text x="2" y="201" style="font-family:sans-serif;font-size:10px;">
1
</text>
<rect x="163.0" y="160.0" width="53.0" height="15.0" style="fill:orange; stroke:rgb(0,0,0);" rx="1"/>
<text x="165" y="169" style="font-family:sans-serif;font-size:10px;">
operand:1
</text>
<rect x="189.5" y="96.0" width="8.0" height="15.0" style="fill:orange; stroke:rgb(0,0,0);" rx="1"/>
<text x="191" y="105" style="font-family:sans-serif;font-size:10px;">
(
</text>
<rect x="314.0" y="160.0" width="10.0" height="15.0" style="fill:orange; stroke:rgb(0,0,0);" rx="1"/>
<text x="316" y="169" style="font-family:sans-serif;font-size:10px;">
0
</text>
<rect x="204.5" y="64.0" width="61.0" height="15.0" style="fill:orange; stroke:rgb(0,0,0);" rx="1"/>
<text x="206" y="73" style="font-family:sans-serif;font-size:10px;">
infix_expr:1
</text>
<rect x="34.0" y="192.0" width="10.0" height="15.0" style="fill:orange; stroke:rgb(0,0,0);" rx="1"/>
<text x="36" y="201" style="font-family:sans-serif;font-size:10px;">
0
</text>
<rect x="365.0" y="160.0" width="10.0" height="15.0" style="fill:orange; stroke:rgb(0,0,0);" rx="1"/>
<text x="367" y="169" style="font-family:sans-serif;font-size:10px;">
1
</text>
<rect x="268.0" y="32.0" width="6.0" height="15.0" style="fill:orange; stroke:rgb(0,0,0);" rx="1"/>
<text x="270" y="41" style="font-family:sans-serif;font-size:10px;">
|
</text>
<rect x="250.0" y="128.0" width="61.0" height="15.0" style="fill:orange; stroke:rgb(0,0,0);" rx="1"/>
<text x="252" y="137" style="font-family:sans-serif;font-size:10px;">
infix_expr:9
</text>
<rect x="341.0" y="64.0" width="8.0" height="15.0" style="fill:orange; stroke:rgb(0,0,0);" rx="1"/>
<text x="343" y="73" style="font-family:sans-serif;font-size:10px;">
(
</text>
<rect x="254.0" y="160.0" width="53.0" height="15.0" style="fill:orange; stroke:rgb(0,0,0);" rx="1"/>
<text x="256" y="169" style="font-family:sans-serif;font-size:10px;">
operand:1
</text>
<rect x="331.0" y="160.0" width="10.0" height="15.0" style="fill:orange; stroke:rgb(0,0,0);" rx="1"/>
<text x="333" y="169" style="font-family:sans-serif;font-size:10px;">
1
</text>
</svg>